<mxfile host="app.diagrams.net" modified="2023-07-12T09:50:26.153Z" agent="Mozilla/5.0 (Macintosh; Intel Mac OS X 10_15_7) AppleWebKit/605.1.15 (KHTML, like Gecko) Version/16.2 Safari/605.1.15" etag="1Qij4XtcFcaVltnEAOde" version="21.6.2" type="device">
  <diagram name="Page-1" id="b520641d-4fe3-3701-9064-5fc419738815">
    <mxGraphModel dx="794" dy="449" grid="1" gridSize="10" guides="1" tooltips="1" connect="1" arrows="1" fold="1" page="1" pageScale="1" pageWidth="1100" pageHeight="850" background="none" math="0" shadow="0">
      <root>
        <mxCell id="0" />
        <mxCell id="1" parent="0" />
        <mxCell id="lfZ4UVJVf9u9eBHsJg5P-7" style="rounded=0;orthogonalLoop=1;jettySize=auto;html=1;fillColor=#fa6800;strokeColor=#C73500;" edge="1" parent="1">
          <mxGeometry relative="1" as="geometry">
            <mxPoint x="680" y="480" as="sourcePoint" />
            <mxPoint x="590" y="410" as="targetPoint" />
          </mxGeometry>
        </mxCell>
        <mxCell id="lfZ4UVJVf9u9eBHsJg5P-8" style="rounded=0;orthogonalLoop=1;jettySize=auto;html=1;fillColor=#fa6800;strokeColor=#C73500;" edge="1" parent="1">
          <mxGeometry relative="1" as="geometry">
            <mxPoint x="680" y="490" as="sourcePoint" />
            <mxPoint x="410" y="560" as="targetPoint" />
          </mxGeometry>
        </mxCell>
        <mxCell id="lfZ4UVJVf9u9eBHsJg5P-1" value="Consumer" style="shape=umlActor;verticalLabelPosition=bottom;verticalAlign=top;html=1;outlineConnect=0;" vertex="1" parent="1">
          <mxGeometry x="700" y="455" width="30" height="60" as="geometry" />
        </mxCell>
        <mxCell id="lfZ4UVJVf9u9eBHsJg5P-14" style="rounded=0;orthogonalLoop=1;jettySize=auto;html=1;fillColor=#0050ef;strokeColor=#001DBC;" edge="1" parent="1" source="lfZ4UVJVf9u9eBHsJg5P-2" target="lfZ4UVJVf9u9eBHsJg5P-5">
          <mxGeometry relative="1" as="geometry" />
        </mxCell>
        <mxCell id="lfZ4UVJVf9u9eBHsJg5P-15" style="rounded=0;orthogonalLoop=1;jettySize=auto;html=1;fillColor=#0050ef;strokeColor=#001DBC;" edge="1" parent="1" source="lfZ4UVJVf9u9eBHsJg5P-2" target="lfZ4UVJVf9u9eBHsJg5P-4">
          <mxGeometry relative="1" as="geometry" />
        </mxCell>
        <mxCell id="lfZ4UVJVf9u9eBHsJg5P-16" style="rounded=0;orthogonalLoop=1;jettySize=auto;html=1;fillColor=#0050ef;strokeColor=#001DBC;" edge="1" parent="1" source="lfZ4UVJVf9u9eBHsJg5P-2" target="lfZ4UVJVf9u9eBHsJg5P-3">
          <mxGeometry relative="1" as="geometry" />
        </mxCell>
        <mxCell id="lfZ4UVJVf9u9eBHsJg5P-2" value="Auditor /&amp;nbsp;&lt;br&gt;System" style="shape=umlActor;verticalLabelPosition=bottom;verticalAlign=top;html=1;outlineConnect=0;" vertex="1" parent="1">
          <mxGeometry x="370" y="540" width="30" height="60" as="geometry" />
        </mxCell>
        <mxCell id="lfZ4UVJVf9u9eBHsJg5P-26" style="rounded=0;orthogonalLoop=1;jettySize=auto;html=1;fontColor=#4f7a28;fillColor=#008a00;strokeColor=#005700;" edge="1" parent="1" source="lfZ4UVJVf9u9eBHsJg5P-3">
          <mxGeometry relative="1" as="geometry">
            <mxPoint x="690" y="470" as="targetPoint" />
          </mxGeometry>
        </mxCell>
        <mxCell id="lfZ4UVJVf9u9eBHsJg5P-3" value="OEM" style="shape=umlActor;verticalLabelPosition=bottom;verticalAlign=top;html=1;outlineConnect=0;" vertex="1" parent="1">
          <mxGeometry x="550" y="350" width="30" height="60" as="geometry" />
        </mxCell>
        <mxCell id="lfZ4UVJVf9u9eBHsJg5P-21" style="edgeStyle=orthogonalEdgeStyle;rounded=0;orthogonalLoop=1;jettySize=auto;html=1;fontColor=#4f7a28;fillColor=#008a00;strokeColor=#005700;" edge="1" parent="1">
          <mxGeometry relative="1" as="geometry">
            <mxPoint x="550" y="376" as="targetPoint" />
            <mxPoint x="470" y="376" as="sourcePoint" />
          </mxGeometry>
        </mxCell>
        <mxCell id="lfZ4UVJVf9u9eBHsJg5P-4" value="Supplier" style="shape=umlActor;verticalLabelPosition=bottom;verticalAlign=top;html=1;outlineConnect=0;" vertex="1" parent="1">
          <mxGeometry x="440" y="350" width="30" height="60" as="geometry" />
        </mxCell>
        <mxCell id="lfZ4UVJVf9u9eBHsJg5P-20" style="edgeStyle=orthogonalEdgeStyle;rounded=0;orthogonalLoop=1;jettySize=auto;html=1;fontColor=#4f7a28;fillColor=#008a00;strokeColor=#005700;" edge="1" parent="1">
          <mxGeometry relative="1" as="geometry">
            <mxPoint x="344" y="375" as="sourcePoint" />
            <mxPoint x="440" y="375" as="targetPoint" />
          </mxGeometry>
        </mxCell>
        <mxCell id="lfZ4UVJVf9u9eBHsJg5P-5" value="Supplier" style="shape=umlActor;verticalLabelPosition=bottom;verticalAlign=top;html=1;outlineConnect=0;" vertex="1" parent="1">
          <mxGeometry x="320" y="350" width="30" height="60" as="geometry" />
        </mxCell>
        <mxCell id="lfZ4UVJVf9u9eBHsJg5P-9" value="Trusted Elements" style="swimlane;fontStyle=0;childLayout=stackLayout;horizontal=1;startSize=30;horizontalStack=0;resizeParent=1;resizeParentMax=0;resizeLast=0;collapsible=1;marginBottom=0;whiteSpace=wrap;html=1;" vertex="1" parent="1">
          <mxGeometry x="590" y="190" width="140" height="80" as="geometry" />
        </mxCell>
        <mxCell id="lfZ4UVJVf9u9eBHsJg5P-10" value="Didn&#39;t change manufacturing process since last audit" style="text;strokeColor=none;fillColor=none;align=left;verticalAlign=middle;spacingLeft=4;spacingRight=4;overflow=hidden;points=[[0,0.5],[1,0.5]];portConstraint=eastwest;rotatable=0;whiteSpace=wrap;html=1;" vertex="1" parent="lfZ4UVJVf9u9eBHsJg5P-9">
          <mxGeometry y="30" width="140" height="50" as="geometry" />
        </mxCell>
        <mxCell id="lfZ4UVJVf9u9eBHsJg5P-17" value="Audits Manufacturing&lt;br&gt;Process" style="text;html=1;strokeColor=none;fillColor=none;align=center;verticalAlign=middle;whiteSpace=wrap;rounded=0;fontColor=#0433ff;" vertex="1" parent="1">
          <mxGeometry x="280" y="485" width="60" height="30" as="geometry" />
        </mxCell>
        <mxCell id="lfZ4UVJVf9u9eBHsJg5P-23" value="Transfer Subproduct" style="text;html=1;strokeColor=none;fillColor=none;align=center;verticalAlign=middle;whiteSpace=wrap;rounded=0;fontSize=9;fontColor=#38571a;" vertex="1" parent="1">
          <mxGeometry x="360" y="346" width="60" height="30" as="geometry" />
        </mxCell>
        <mxCell id="lfZ4UVJVf9u9eBHsJg5P-24" value="Transfer Subproduct" style="text;html=1;strokeColor=none;fillColor=none;align=center;verticalAlign=middle;whiteSpace=wrap;rounded=0;fontSize=9;fontColor=#38571a;" vertex="1" parent="1">
          <mxGeometry x="477" y="346" width="60" height="30" as="geometry" />
        </mxCell>
        <mxCell id="lfZ4UVJVf9u9eBHsJg5P-25" value="Transfer Product" style="text;html=1;strokeColor=none;fillColor=none;align=center;verticalAlign=middle;whiteSpace=wrap;rounded=0;fontSize=9;fontColor=#38571a;" vertex="1" parent="1">
          <mxGeometry x="630" y="395" width="60" height="30" as="geometry" />
        </mxCell>
        <mxCell id="lfZ4UVJVf9u9eBHsJg5P-28" value="Trust&lt;br&gt;Audits" style="text;html=1;strokeColor=none;fillColor=none;align=center;verticalAlign=middle;whiteSpace=wrap;rounded=0;fontColor=#CC6600;" vertex="1" parent="1">
          <mxGeometry x="530" y="530" width="60" height="30" as="geometry" />
        </mxCell>
        <mxCell id="lfZ4UVJVf9u9eBHsJg5P-30" value="Trust" style="text;html=1;strokeColor=none;fillColor=none;align=center;verticalAlign=middle;whiteSpace=wrap;rounded=0;fontColor=#CC6600;" vertex="1" parent="1">
          <mxGeometry x="580" y="440" width="60" height="30" as="geometry" />
        </mxCell>
        <mxCell id="lfZ4UVJVf9u9eBHsJg5P-33" value="Provided Trust by the System" style="swimlane;fontStyle=0;childLayout=stackLayout;horizontal=1;startSize=30;horizontalStack=0;resizeParent=1;resizeParentMax=0;resizeLast=0;collapsible=1;marginBottom=0;whiteSpace=wrap;html=1;" vertex="1" parent="1">
          <mxGeometry x="300" y="130" width="190" height="190" as="geometry" />
        </mxCell>
        <mxCell id="lfZ4UVJVf9u9eBHsJg5P-34" value="Origin of subproducts" style="text;strokeColor=none;fillColor=none;align=left;verticalAlign=middle;spacingLeft=4;spacingRight=4;overflow=hidden;points=[[0,0.5],[1,0.5]];portConstraint=eastwest;rotatable=0;whiteSpace=wrap;html=1;" vertex="1" parent="lfZ4UVJVf9u9eBHsJg5P-33">
          <mxGeometry y="30" width="190" height="30" as="geometry" />
        </mxCell>
        <mxCell id="lfZ4UVJVf9u9eBHsJg5P-35" value="Emissions according to common standards" style="text;strokeColor=none;fillColor=none;align=left;verticalAlign=middle;spacingLeft=4;spacingRight=4;overflow=hidden;points=[[0,0.5],[1,0.5]];portConstraint=eastwest;rotatable=0;whiteSpace=wrap;html=1;" vertex="1" parent="lfZ4UVJVf9u9eBHsJg5P-33">
          <mxGeometry y="60" width="190" height="30" as="geometry" />
        </mxCell>
        <mxCell id="lfZ4UVJVf9u9eBHsJg5P-37" value="&lt;hr&gt;Confidentiality of Manufacturing Process" style="text;strokeColor=none;fillColor=none;align=left;verticalAlign=middle;spacingLeft=4;spacingRight=4;overflow=hidden;points=[[0,0.5],[1,0.5]];portConstraint=eastwest;rotatable=0;whiteSpace=wrap;html=1;" vertex="1" parent="lfZ4UVJVf9u9eBHsJg5P-33">
          <mxGeometry y="90" width="190" height="50" as="geometry" />
        </mxCell>
        <mxCell id="lfZ4UVJVf9u9eBHsJg5P-38" value="Confidentiality of Suppliers" style="text;strokeColor=none;fillColor=none;align=left;verticalAlign=middle;spacingLeft=4;spacingRight=4;overflow=hidden;points=[[0,0.5],[1,0.5]];portConstraint=eastwest;rotatable=0;whiteSpace=wrap;html=1;" vertex="1" parent="lfZ4UVJVf9u9eBHsJg5P-33">
          <mxGeometry y="140" width="190" height="50" as="geometry" />
        </mxCell>
        <mxCell id="lfZ4UVJVf9u9eBHsJg5P-39" style="rounded=0;orthogonalLoop=1;jettySize=auto;html=1;fillColor=#fa6800;strokeColor=#C73500;entryX=0.75;entryY=0.1;entryDx=0;entryDy=0;entryPerimeter=0;" edge="1" parent="1">
          <mxGeometry relative="1" as="geometry">
            <mxPoint x="451.7048192771085" y="410" as="sourcePoint" />
            <mxPoint x="400.5" y="546" as="targetPoint" />
          </mxGeometry>
        </mxCell>
        <mxCell id="lfZ4UVJVf9u9eBHsJg5P-40" style="rounded=0;orthogonalLoop=1;jettySize=auto;html=1;fillColor=#fa6800;strokeColor=#C73500;" edge="1" parent="1">
          <mxGeometry relative="1" as="geometry">
            <mxPoint x="540" y="425" as="sourcePoint" />
            <mxPoint x="410" y="555" as="targetPoint" />
          </mxGeometry>
        </mxCell>
        <mxCell id="lfZ4UVJVf9u9eBHsJg5P-41" style="rounded=0;orthogonalLoop=1;jettySize=auto;html=1;fillColor=#fa6800;strokeColor=#C73500;" edge="1" parent="1">
          <mxGeometry relative="1" as="geometry">
            <mxPoint x="338" y="430" as="sourcePoint" />
            <mxPoint x="368" y="540" as="targetPoint" />
          </mxGeometry>
        </mxCell>
        <mxCell id="lfZ4UVJVf9u9eBHsJg5P-42" value="System / Blockchain" style="rounded=0;whiteSpace=wrap;html=1;" vertex="1" parent="1">
          <mxGeometry x="240" y="540" width="120" height="60" as="geometry" />
        </mxCell>
      </root>
    </mxGraphModel>
  </diagram>
</mxfile>
